<?xml version="1.0" encoding="UTF-8"?>
<svg version="1.1" xmlns="http://www.w3.org/2000/svg" width="144" height="144">
<path d="M0 0 C4.92623634 2.24669356 8.03753905 5.93030921 10 11 C10 12.32 10 13.64 10 15 C12.97 15.33 15.94 15.66 19 16 C19.433125 15.175 19.86625 14.35 20.3125 13.5 C20.869375 12.675 21.42625 11.85 22 11 C22.99 11 23.98 11 25 11 C24.46270506 15.4280094 23.39129401 18.58737836 21.1640625 22.44140625 C20.30941406 23.93510742 20.30941406 23.93510742 19.4375 25.45898438 C18.839375 26.48314453 18.24125 27.50730469 17.625 28.5625 C17.03460938 29.59052734 16.44421875 30.61855469 15.8359375 31.67773438 C14.23543154 34.45879372 12.6254674 37.23346389 11 40 C10.48228027 40.93448975 9.96456055 41.86897949 9.43115234 42.83178711 C8.95887207 43.54729736 8.4865918 44.26280762 8 45 C7.34 45 6.68 45 6 45 C5.90203125 44.31292969 5.8040625 43.62585937 5.703125 42.91796875 C5.55359375 42.01691406 5.4040625 41.11585937 5.25 40.1875 C5.11078125 39.29417969 4.9715625 38.40085938 4.828125 37.48046875 C3.80638074 34.42005552 2.77432369 33.58176368 0 32 C-5.59856277 30.06635985 -11.93534668 30.24921698 -17.4375 32.25 C-20.12025537 34.08212562 -21.57939821 35.07987409 -23 38 C-23.67191191 42.02317624 -23.6210613 44.96489783 -21.5 48.5 C-17.85991277 50.68405234 -15.20345267 50.28023018 -11 50 C-11 49.01 -11 48.02 -11 47 C-11.66 47.66 -12.32 48.32 -13 49 C-16.5 48.8125 -16.5 48.8125 -20 48 C-22.5099972 44.23500419 -22.61476744 42.45706394 -22 38 C-19.89511699 35.00213632 -19.29453918 34.25003594 -16 33 C-3.72344056 31.60039225 -3.72344056 31.60039225 1.38671875 34.2265625 C3.39549813 36.43476065 3.73712194 37.94085381 4.1875 40.875 C4.32542969 41.71804687 4.46335937 42.56109375 4.60546875 43.4296875 C4.73566406 44.27789062 4.86585937 45.12609375 5 46 C5.32577645 47.66816024 5.65691924 49.3353125 6 51 C5.01 51 4.02 51 3 51 C3.495 53.97 3.495 53.97 4 57 C2.02 56.67 0.04 56.34 -2 56 C-2 57.65 -2 59.3 -2 61 C19.78 61 41.56 61 64 61 C65.125 67.75 65.125 67.75 63 71 C61.96976463 71.0154612 61.96976463 71.0154612 60.91871643 71.03123474 C53.79784143 71.13905595 46.67709926 71.25367283 39.55639648 71.37231445 C36.89561735 71.4157418 34.23480893 71.4574109 31.57397461 71.49731445 C27.75886185 71.55482872 23.94389758 71.61857668 20.12890625 71.68359375 C18.93100967 71.70030624 17.7331131 71.71701874 16.49891663 71.73423767 C14.84731789 71.7641555 14.84731789 71.7641555 13.16235352 71.79467773 C11.7000808 71.81799416 11.7000808 71.81799416 10.20826721 71.84178162 C8.02581432 71.75593055 8.02581432 71.75593055 7 73 C6.84235595 74.77869726 6.74899323 76.56318476 6.68359375 78.34765625 C6.64169922 79.42724609 6.59980469 80.50683594 6.55664062 81.61914062 C6.51732422 82.75544922 6.47800781 83.89175781 6.4375 85.0625 C6.39431641 86.20267578 6.35113281 87.34285156 6.30664062 88.51757812 C6.20017161 91.34492195 6.09815793 94.17235738 6 97 C2.42462221 96.84557878 -0.6815105 96.37507164 -4 95 C-6.63489626 91.99869988 -8.07619821 88.65618783 -9.625 85 C-10.27275391 83.6078125 -10.27275391 83.6078125 -10.93359375 82.1875 C-14 75.49007937 -14 75.49007937 -14 73 C-14.66 73 -15.32 73 -16 73 C-15.70230713 73.59014893 -15.40461426 74.18029785 -15.09790039 74.78833008 C-13.75067194 77.46200373 -12.40655328 80.13722888 -11.0625 82.8125 C-10.59392578 83.74126953 -10.12535156 84.67003906 -9.64257812 85.62695312 C-9.19462891 86.51962891 -8.74667969 87.41230469 -8.28515625 88.33203125 C-7.87144775 89.15421143 -7.45773926 89.9763916 -7.03149414 90.82348633 C-6 93 -6 93 -5 96 C-5.53109375 96.25394531 -6.0621875 96.50789063 -6.609375 96.76953125 C-7.31578125 97.11371094 -8.0221875 97.45789063 -8.75 97.8125 C-9.44609375 98.14894531 -10.1421875 98.48539062 -10.859375 98.83203125 C-13.0809174 100.04415019 -15.012717 101.43792394 -17 103 C-17.08636719 102.21496094 -17.17273437 101.42992188 -17.26171875 100.62109375 C-18.13741741 94.07343861 -18.91499069 88.55229405 -24 84 C-26.8978368 82.09404023 -29.86594283 80.48167844 -33 79 C-33 76.69 -33 74.38 -33 72 C-33.80219971 71.98541748 -34.60439941 71.97083496 -35.4309082 71.95581055 C-39.05859699 71.88143281 -42.68535504 71.78473757 -46.3125 71.6875 C-47.57513672 71.66494141 -48.83777344 71.64238281 -50.13867188 71.61914062 C-51.95141602 71.5659668 -51.95141602 71.5659668 -53.80078125 71.51171875 C-54.91622314 71.48553467 -56.03166504 71.45935059 -57.1809082 71.43237305 C-60 71 -60 71 -61.86791992 69.62817383 C-63.46942196 67.3248706 -63.35112152 65.73874782 -63 63 C-60.51942372 60.51942372 -59.63807536 60.70980995 -56.2109375 60.5859375 C-55.26992188 60.54726562 -54.32890625 60.50859375 -53.359375 60.46875 C-52.37453125 60.4378125 -51.3896875 60.406875 -50.375 60.375 C-49.38242187 60.33632812 -48.38984375 60.29765625 -47.3671875 60.2578125 C-44.91177058 60.16337339 -42.45591043 60.08059119 -40 60 C-46.93 59.505 -46.93 59.505 -54 59 C-52.85375285 52.79116126 -51.3949287 48.31872163 -48 43 C-47.27554688 43.04640625 -46.55109375 43.0928125 -45.8046875 43.140625 C-39.67144137 43.36959952 -35.72768727 43.37311072 -31 39 C-28.93849513 36.98341617 -28.93849513 36.98341617 -28 34 C-28.1248212 32.18593184 -28.2730949 30.37340987 -28.4375 28.5625 C-28.53515625 25.6640625 -28.53515625 25.6640625 -28 23 C-23.21635203 18.28162598 -15.81539424 15.16588671 -9.125 14.875 C-8.42375 14.91625 -7.7225 14.9575 -7 15 C-6.95875 14.01 -6.9175 13.02 -6.875 12 C-6.21473313 7.03276153 -3.15706605 3.71703495 0 0 Z M5 12 C4.3185177 13.89179203 4.3185177 13.89179203 4 16 C4.66 16.66 5.32 17.32 6 18 C6 16.02 6 14.04 6 12 C5.67 12 5.34 12 5 12 Z M-17 41 C-16.67 41.99 -16.34 42.98 -16 44 C-15.01 43.67 -14.02 43.34 -13 43 C-13.33 42.34 -13.66 41.68 -14 41 C-14.99 41 -15.98 41 -17 41 Z M-29 59 C-28.67 59.66 -28.34 60.32 -28 61 C-25.69 61 -23.38 61 -21 61 C-20.67 60.34 -20.34 59.68 -20 59 C-22.97 59 -25.94 59 -29 59 Z " fill="#283E4C" transform="translate(72,5)"/>
<path d="M0 0 C14.19 0 28.38 0 43 0 C41.83767581 13.94789029 39.1709295 24.07542519 29 34 C20.912 40 20.912 40 16 40 C15.7525 40.86625 15.505 41.7325 15.25 42.625 C13.93221387 46.18302254 12.19813178 48.9226155 10 52 C9.01 51.67 8.02 51.34 7 51 C8.875 46.25 8.875 46.25 10 44 C8.68 44 7.36 44 6 44 C5.97421875 43.34773438 5.9484375 42.69546875 5.921875 42.0234375 C5.54845996 36.26945122 4.86042995 32.54168229 1 28 C0.01 27.34 -0.98 26.68 -2 26 C-2.34057617 23.84521484 -2.34057617 23.84521484 -2.29296875 21.2109375 C-2.2784668 19.79941406 -2.2784668 19.79941406 -2.26367188 18.359375 C-2.23853516 17.37453125 -2.21339844 16.3896875 -2.1875 15.375 C-2.17396484 14.38242188 -2.16042969 13.38984375 -2.14648438 12.3671875 C-2.11105743 9.91091928 -2.06166196 7.45572715 -2 5 C-1.34 5 -0.68 5 0 5 C0.36967896 5.86782104 0.36967896 5.86782104 0.74682617 6.75317383 C7.21752261 21.94544937 7.21752261 21.94544937 14 37 C11.2880877 28.24413297 7.54610593 20.04850967 3.76367188 11.7109375 C3.28091797 10.63328125 2.79816406 9.555625 2.30078125 8.4453125 C1.85903564 7.47094238 1.41729004 6.49657227 0.9621582 5.49267578 C0 3 0 3 0 0 Z " fill="#E2611D" transform="translate(82,78)"/>
<path d="M0 0 C4.92623634 2.24669356 8.03753905 5.93030921 10 11 C10 12.32 10 13.64 10 15 C12.97 15.33 15.94 15.66 19 16 C19.433125 15.175 19.86625 14.35 20.3125 13.5 C20.869375 12.675 21.42625 11.85 22 11 C22.99 11 23.98 11 25 11 C24.46270506 15.4280094 23.39129401 18.58737836 21.1640625 22.44140625 C20.30941406 23.93510742 20.30941406 23.93510742 19.4375 25.45898438 C18.839375 26.48314453 18.24125 27.50730469 17.625 28.5625 C17.03460938 29.59052734 16.44421875 30.61855469 15.8359375 31.67773438 C14.23543154 34.45879372 12.6254674 37.23346389 11 40 C10.48228027 40.93448975 9.96456055 41.86897949 9.43115234 42.83178711 C8.95887207 43.54729736 8.4865918 44.26280762 8 45 C7.34 45 6.68 45 6 45 C5.90203125 44.31292969 5.8040625 43.62585937 5.703125 42.91796875 C5.55359375 42.01691406 5.4040625 41.11585937 5.25 40.1875 C5.11078125 39.29417969 4.9715625 38.40085938 4.828125 37.48046875 C3.80638074 34.42005552 2.77432369 33.58176368 0 32 C-5.59856277 30.06635985 -11.93534668 30.24921698 -17.4375 32.25 C-20.12025537 34.08212562 -21.57939821 35.07987409 -23 38 C-23.54367526 42.89307732 -23.74561602 44.88157597 -21 49 C-20.34 49.66 -19.68 50.32 -19 51 C-19.99 51.495 -19.99 51.495 -21 52 C-20.835 52.763125 -20.67 53.52625 -20.5 54.3125 C-20 57 -20 57 -20 60 C-23.37874158 60.28525961 -26.62875293 60.41936353 -30 60 C-33.40263522 56.59736478 -33.98624432 51.60089118 -35 47 C-39.54170996 48.90884692 -39.54170996 48.90884692 -44 51 C-43.67 52.98 -43.34 54.96 -43 57 C-42.01 57.33 -41.02 57.66 -40 58 C-40 58.33 -40 58.66 -40 59 C-44.62 59 -49.24 59 -54 59 C-52.85375285 52.79116126 -51.3949287 48.31872163 -48 43 C-47.27554688 43.04640625 -46.55109375 43.0928125 -45.8046875 43.140625 C-39.67144137 43.36959952 -35.72768727 43.37311072 -31 39 C-28.93849513 36.98341617 -28.93849513 36.98341617 -28 34 C-28.1248212 32.18593184 -28.2730949 30.37340987 -28.4375 28.5625 C-28.53515625 25.6640625 -28.53515625 25.6640625 -28 23 C-23.21635203 18.28162598 -15.81539424 15.16588671 -9.125 14.875 C-8.42375 14.91625 -7.7225 14.9575 -7 15 C-6.95875 14.01 -6.9175 13.02 -6.875 12 C-6.21473313 7.03276153 -3.15706605 3.71703495 0 0 Z M5 12 C4.3185177 13.89179203 4.3185177 13.89179203 4 16 C4.66 16.66 5.32 17.32 6 18 C6 16.02 6 14.04 6 12 C5.67 12 5.34 12 5 12 Z " fill="#F07535" transform="translate(72,5)"/>
<path d="M0 0 C7.97220874 1.53447381 14.96656454 8.97193358 20 15 C25.15487093 22.69686032 29.16853283 29.57688774 29 39 C22.46721214 39.02527002 15.93443679 39.04283292 9.40161133 39.05493164 C7.17732268 39.05997317 4.95303737 39.06680623 2.72875977 39.07543945 C-0.46078309 39.08751298 -3.65028229 39.09322996 -6.83984375 39.09765625 C-8.34139259 39.10539818 -8.34139259 39.10539818 -9.87327576 39.11329651 C-10.79415482 39.11337204 -11.71503387 39.11344757 -12.66381836 39.11352539 C-13.47878281 39.115746 -14.29374725 39.11796661 -15.13340759 39.12025452 C-17 39 -17 39 -18 38 C-18.88333338 31.96388857 -16.23510695 28.75049916 -13 24 C-8.09755778 16.26922572 -4.00282161 8.21881124 0 0 Z " fill="#F96924" transform="translate(95,25)"/>
<path d="M0 0 C3.91271724 3.46809028 6.50050034 7.18791912 6.91015625 12.5234375 C6.53109086 17.34958716 4.99482846 20.77666789 1.75 24.4375 C-2.05186983 27.22778584 -5.6107227 28.81170569 -10.375 28.4375 C-15.08432539 27.48640095 -18.64268228 25.6275311 -21.54296875 21.67578125 C-23.96021979 17.47652945 -24.81277233 14.09904263 -23.84765625 9.3203125 C-22.30613347 4.46401197 -19.85329658 1.50592514 -15.5 -1 C-9.79214865 -3.535644 -5.49222402 -2.64049232 0 0 Z M-10.25 2.4375 C-6.25 3.4375 -6.25 3.4375 -6.25 3.4375 Z M0.75 10.4375 C1.75 12.4375 1.75 12.4375 1.75 12.4375 Z " fill="#384955" transform="translate(79.25,105.5625)"/>
<path d="M0 0 C4.53053162 1.77985171 6.78180261 4.9899743 9.25 9.0625 C10 11 10 11 10 15 C12.97 15.33 15.94 15.66 19 16 C19.433125 15.175 19.86625 14.35 20.3125 13.5 C20.869375 12.675 21.42625 11.85 22 11 C22.99 11 23.98 11 25 11 C24.46270506 15.4280094 23.39129401 18.58737836 21.1640625 22.44140625 C20.59429687 23.43720703 20.02453125 24.43300781 19.4375 25.45898438 C18.839375 26.48314453 18.24125 27.50730469 17.625 28.5625 C17.03460938 29.59052734 16.44421875 30.61855469 15.8359375 31.67773438 C14.23543154 34.45879372 12.6254674 37.23346389 11 40 C10.48228027 40.93448975 9.96456055 41.86897949 9.43115234 42.83178711 C8.95887207 43.54729736 8.4865918 44.26280762 8 45 C7.34 45 6.68 45 6 45 C5.90203125 44.31292969 5.8040625 43.62585937 5.703125 42.91796875 C5.55359375 42.01691406 5.4040625 41.11585937 5.25 40.1875 C5.11078125 39.29417969 4.9715625 38.40085938 4.828125 37.48046875 C3.56687317 33.70266257 1.14146719 32.60244102 -2.25 30.8125 C-2.8275 30.544375 -3.405 30.27625 -4 30 C-2.68 29.67 -1.36 29.34 0 29 C-0.27004154 25.03939073 -0.48571786 23.46285393 -3.5 20.75 C-4.7375 19.88375 -4.7375 19.88375 -6 19 C-7.5547669 15.89046621 -7.28644437 13.43733239 -7 10 C-5.1875 6.8125 -5.1875 6.8125 -3 4 C-2.4225 3.21625 -1.845 2.4325 -1.25 1.625 C-0.8375 1.08875 -0.425 0.5525 0 0 Z M5 12 C4.3185177 13.89179203 4.3185177 13.89179203 4 16 C4.66 16.66 5.32 17.32 6 18 C6 16.02 6 14.04 6 12 C5.67 12 5.34 12 5 12 Z " fill="#F56D2B" transform="translate(72,5)"/>
<path d="M0 0 C0.66 0 1.32 0 2 0 C2.36967896 0.86782104 2.36967896 0.86782104 2.74682617 1.75317383 C9.20663165 16.95026635 9.20663165 16.95026635 16 32 C16.66 32 17.32 32 18 32 C18.54895285 29.04937843 19.0074288 26.31943831 18.9375 23.3125 C19 21 19 21 21 18 C20.34 18 19.68 18 19 18 C19.33 16.68 19.66 15.36 20 14 C21.89213369 16.38573379 23.02391783 18.07175348 24 21 C23.67 17.37 23.34 13.74 23 10 C23.99 9.34 24.98 8.68 26 8 C27 11 27 11 27 14 C27.77842938 10.59437148 28.09978121 7.49234244 28 4 C28.66 4 29.32 4 30 4 C30.33 5.65 30.66 7.3 31 9 C32.65 9 34.3 9 36 9 C35.67 9.99 35.34 10.98 35 12 C32.4375 13.1875 32.4375 13.1875 30 14 C30.99 14 31.98 14 33 14 C32.8125 15.8125 32.8125 15.8125 32 18 C31.21625 18.45375 30.4325 18.9075 29.625 19.375 C26.33533414 21.41145982 25.4808106 23.492817 24 27 C25.093125 26.525625 26.18625 26.05125 27.3125 25.5625 C29.53476255 24.59812191 31.69500485 23.76833172 34 23 C33.64819344 25.80232125 33.2478942 26.7935861 31.0390625 28.6328125 C30.24242188 29.12523438 29.44578125 29.61765625 28.625 30.125 C27.83351563 30.62257813 27.04203125 31.12015625 26.2265625 31.6328125 C25.49179688 32.08398438 24.75703125 32.53515625 24 33 C23.01 33.66 22.02 34.32 21 35 C20.01 35 19.02 35 18 35 C17.7525 35.86625 17.505 36.7325 17.25 37.625 C15.93221387 41.18302254 14.19813178 43.9226155 12 47 C11.01 46.67 10.02 46.34 9 46 C10.875 41.25 10.875 41.25 12 39 C10.68 39 9.36 39 8 39 C7.97421875 38.34773438 7.9484375 37.69546875 7.921875 37.0234375 C7.54845996 31.26945122 6.86042995 27.54168229 3 23 C2.01 22.34 1.02 21.68 0 21 C-0.34057617 18.84521484 -0.34057617 18.84521484 -0.29296875 16.2109375 C-0.2784668 14.79941406 -0.2784668 14.79941406 -0.26367188 13.359375 C-0.23853516 12.37453125 -0.21339844 11.3896875 -0.1875 10.375 C-0.17396484 9.38242188 -0.16042969 8.38984375 -0.14648438 7.3671875 C-0.11105743 4.91091928 -0.06166196 2.45572715 0 0 Z " fill="#2B3843" transform="translate(80,83)"/>
<path d="M0 0 C2.31 0 4.62 0 7 0 C10.07860622 9.23581866 7.35541163 20.63170412 3.55859375 29.28515625 C-2.38507525 40.19337477 -10.73491886 46.17274939 -21.27734375 52.140625 C-23.99921799 53.99946594 -25.01707123 54.90902903 -26 58 C-26 58.99 -26 59.98 -26 61 C-24.515 60.505 -24.515 60.505 -23 60 C-23.33 60.99 -23.66 61.98 -24 63 C-26.31 63 -28.62 63 -31 63 C-31.43678125 54.40996881 -31.43678125 54.40996881 -28 50 C-25.53605167 48.18397473 -22.90790519 46.69983961 -20.25 45.1875 C-10.8100801 39.5416451 -3.68652255 33.05804434 -0.46069336 22.18164062 C0.04181091 19.80200196 0.11323964 17.66538334 0.09765625 15.234375 C0.09282227 13.90019531 0.09282227 13.90019531 0.08789062 12.5390625 C0.07951172 11.61867188 0.07113281 10.69828125 0.0625 9.75 C0.05798828 8.81414062 0.05347656 7.87828125 0.04882812 6.9140625 C0.03706918 4.60930959 0.02063426 2.30468773 0 0 Z " fill="#3E5360" transform="translate(127,78)"/>
<path d="M0 0 C2.54090793 1.88114428 4.08976651 4.07476794 5.71484375 6.76171875 C6.89585541 8.66191261 6.89585541 8.66191261 9.8203125 10.34765625 C9.8203125 11.66765625 9.8203125 12.98765625 9.8203125 14.34765625 C-3.3796875 14.34765625 -16.5796875 14.34765625 -30.1796875 14.34765625 C-29.07233884 8.81091294 -28.1853273 7.98914698 -24.1796875 4.34765625 C-23.3546875 3.46078125 -22.5296875 2.57390625 -21.6796875 1.66015625 C-15.24448653 -4.29240465 -7.39270177 -4.04424273 0 0 Z M-19.1796875 5.34765625 C-19.5096875 6.33765625 -19.8396875 7.32765625 -20.1796875 8.34765625 C-13.2496875 8.34765625 -6.3196875 8.34765625 0.8203125 8.34765625 C-3.9751718 2.95583126 -3.9751718 2.95583126 -9.9921875 2.09765625 C-13.81062687 2.14625457 -16.15875479 2.87598403 -19.1796875 5.34765625 Z " fill="#E58E5D" transform="translate(43.1796875,89.65234375)"/>
<path d="M0 0 C0.78375 0.04125 1.5675 0.0825 2.375 0.125 C2.375 0.785 2.375 1.445 2.375 2.125 C1.385 2.62 1.385 2.62 0.375 3.125 C-0.28272428 6.15434491 -0.28272428 6.15434491 -0.625 9.125 C0.45007813 9.52525391 0.45007813 9.52525391 1.546875 9.93359375 C14.08929662 15.21734872 24.6543472 24.75146465 30.3046875 37.16796875 C32.72985244 43.50804282 33.57190249 50.35530497 33.375 57.125 C32.715 58.115 32.055 59.105 31.375 60.125 C28.25 60.3125 28.25 60.3125 25.375 60.125 C25.42140625 59.01382813 25.4678125 57.90265625 25.515625 56.7578125 C25.76958432 48.14161239 25.86188874 40.78075391 21.375 33.125 C20.9625 32.42117187 20.55 31.71734375 20.125 30.9921875 C15.3457793 23.85051111 8.19714362 19.79161253 0.9375 15.5 C-2.30283657 13.48626857 -4.27282252 11.82095178 -5.625 8.125 C-5.36275086 3.6667647 -5.09826266 0.24277441 0 0 Z " fill="#304452" transform="translate(101.625,3.875)"/>
<path d="M0 0 C3.14651692 3.2364174 3.9967408 5.75571963 4.5625 10.1875 C4.07065638 14.20422287 2.7895235 16.16865639 0.1875 19.25 C-3.209968 21.64367064 -5.78286439 22.50431351 -9.875 22.25 C-14.91525469 21.37301496 -17.25501547 18.37384255 -20.1875 14.375 C-21.19724403 10.94187031 -20.74730454 8.69709172 -19.8125 5.25 C-17.71450686 1.99004142 -15.57145037 -1.12328737 -11.828125 -2.45703125 C-7.35927788 -3.10657298 -3.81002201 -2.37068036 0 0 Z M-12.75 5.3125 C-14.26584601 8.07668977 -14.14204432 10.15228335 -13.8125 13.25 C-11.87175114 15.59886432 -11.87175114 15.59886432 -8.375 15.6875 C-4.72553262 15.62417392 -4.72553262 15.62417392 -2.75 13.0625 C-1.52107272 10.26181462 -1.52107272 10.26181462 -2.625 7.4375 C-3.016875 6.715625 -3.40875 5.99375 -3.8125 5.25 C-8.40329703 4.09850984 -8.40329703 4.09850984 -12.75 5.3125 Z " fill="#495D68" transform="translate(38.8125,24.75)"/>
<path d="M0 0 C11.55 0 23.1 0 35 0 C32.58987716 7.23036853 29.82411004 10.08794498 23.125 13.4375 C17.48974375 14.45184613 12.84776418 13.95941602 7.75 11.3125 C4.65106835 8.7065802 2.3739705 6.2816651 0 3 C0 2.01 0 1.02 0 0 Z " fill="#253C4A" transform="translate(16,106)"/>
<path d="M0 0 C3.8114833 1.3193596 7.00911138 2.79592803 10 5.5625 C10.86051363 10.72558176 9.75446601 14.17575783 7 18.5625 C2.99745384 21.23086411 -0.29313299 21.3965238 -5 20.5625 C-7.75569447 18.38090855 -9.43588747 16.69072506 -11 13.5625 C-11.1730058 9.73380644 -10.96230112 6.0794608 -8.875 2.7890625 C-6.02497843 -0.01449133 -3.78437512 -0.79900434 0 0 Z " fill="#F9641D" transform="translate(71,108.4375)"/>
<path d="M0 0 C14.19 0 28.38 0 43 0 C41.34750707 19.82991513 41.34750707 19.82991513 34.4375 27.125 C30.30889443 30.30085044 27.18272356 31.29326497 22 32 C22.93924273 27.86733198 23.54319836 26.32628688 27.0625 23.8125 C28.5165625 22.9153125 28.5165625 22.9153125 30 22 C30.33 21.01 30.66 20.02 31 19 C29.02 19.99 29.02 19.99 27 21 C27.75 19.0625 27.75 19.0625 29 17 C31.0625 16.375 31.0625 16.375 33 16 C33.33 15.34 33.66 14.68 34 14 C32.68 13.67 31.36 13.34 30 13 C30.804375 12.71125 31.60875 12.4225 32.4375 12.125 C35.1326468 11.26737432 35.1326468 11.26737432 36 9 C34.68 9 33.36 9 32 9 C32.33 7.35 32.66 5.7 33 4 C36.07617188 3.70703125 36.07617188 3.70703125 39.15234375 3.4140625 C39.76207031 3.27742188 40.37179688 3.14078125 41 3 C41.33 2.34 41.66 1.68 42 1 C28.47 1 14.94 1 1 1 C0.67 1.66 0.34 2.32 0 3 C0 2.01 0 1.02 0 0 Z " fill="#ED8851" transform="translate(82,78)"/>
<path d="M0 0 C2.75 2.5 2.75 2.5 5 5 C5.33 5.33 5.66 5.66 6 6 C6.04080783 7.99958364 6.04254356 10.00045254 6 12 C3.43119247 13.28440377 1.30361975 13.2950157 -1.5625 13.5 C-10.91792328 14.00736432 -10.91792328 14.00736432 -20 16 C-20 13.03 -20 10.06 -20 7 C-17.79928794 5.76271077 -15.59484849 4.53337276 -13.3828125 3.31640625 C-11.49388133 2.2728492 -9.61925023 1.20341359 -7.75 0.125 C-4.48936983 -1.20889416 -3.25065412 -1.33360169 0 0 Z " fill="#F96721" transform="translate(66,22)"/>
<path d="M0 0 C2.31 0.66 4.62 1.32 7 2 C7 2.33 7 2.66 7 3 C8.27875 2.979375 9.5575 2.95875 10.875 2.9375 C14.75 2.875 14.75 2.875 17 4 C18.11240343 8.12342025 18.68179071 11.78463396 16.5625 15.5625 C16.046875 16.036875 15.53125 16.51125 15 17 C15.83333333 19.16666667 15.83333333 19.16666667 18 20 C16.67924528 31.32075472 16.67924528 31.32075472 14 34 C12.00150987 29.48137737 10.00780682 24.96068543 8.01855469 20.43798828 C7.34083869 18.89899466 6.66180688 17.36057979 5.98144531 15.82275391 C5.00501401 13.61510821 4.0332986 11.40543985 3.0625 9.1953125 C2.75626709 8.50567413 2.45003418 7.81603577 2.13452148 7.10549927 C0 2.22774341 0 2.22774341 0 0 Z " fill="#F66A26" transform="translate(83,81)"/>
<path d="M0 0 C4.38855677 1.72407587 6.91486937 4.82973873 9 9 C9.40601504 17.39097744 9.40601504 17.39097744 7 21 C6.34 20.67 5.68 20.34 5 20 C5 18.02 5 16.04 5 14 C4.34 18.95 3.68 23.9 3 29 C2.01 29.33 1.02 29.66 0 30 C-0.061875 28.9275 -0.12375 27.855 -0.1875 26.75 C-1.14955719 22.30973605 -2.33544898 21.47357194 -6 19 C-7.5547669 15.89046621 -7.28644437 13.43733239 -7 10 C-5.1875 6.8125 -5.1875 6.8125 -3 4 C-2.4225 3.21625 -1.845 2.4325 -1.25 1.625 C-0.8375 1.08875 -0.425 0.5525 0 0 Z " fill="#4B5E6A" transform="translate(72,5)"/>
<path d="M0 0 C0.66 0 1.32 0 2 0 C2.36967896 0.86782104 2.36967896 0.86782104 2.74682617 1.75317383 C9.54895487 18.02315046 9.54895487 18.02315046 17 34 C16.01 34.495 16.01 34.495 15 35 C13.86649466 37.01669827 13.86649466 37.01669827 13 39 C11.35 39 9.7 39 8 39 C7.97421875 38.34773438 7.9484375 37.69546875 7.921875 37.0234375 C7.54845996 31.26945122 6.86042995 27.54168229 3 23 C2.01 22.34 1.02 21.68 0 21 C-0.34057617 18.84521484 -0.34057617 18.84521484 -0.29296875 16.2109375 C-0.2784668 14.79941406 -0.2784668 14.79941406 -0.26367188 13.359375 C-0.23853516 12.37453125 -0.21339844 11.3896875 -0.1875 10.375 C-0.17396484 9.38242188 -0.16042969 8.38984375 -0.14648438 7.3671875 C-0.11105743 4.91091928 -0.06166196 2.45572715 0 0 Z " fill="#BA734E" transform="translate(80,83)"/>
<path d="M0 0 C2.5264892 1.73276914 4.16584908 3.61130163 5.765625 6.2109375 C5.765625 7.2009375 5.765625 8.1909375 5.765625 9.2109375 C2.16635984 8.88373158 0.18900857 7.86977416 -2.546875 5.6484375 C-6.59462152 2.59719503 -9.23930981 2.64697853 -14.234375 3.2109375 C-17.11396056 3.87572315 -17.11396056 3.87572315 -19.234375 5.2109375 C-19.564375 6.2009375 -19.894375 7.1909375 -20.234375 8.2109375 C-21.884375 8.5409375 -23.534375 8.8709375 -25.234375 9.2109375 C-24.9343575 5.71073328 -24.27703759 4.26189559 -21.984375 1.5234375 C-15.10465473 -4.26178181 -7.65052079 -4.24694264 0 0 Z " fill="#5B6C76" transform="translate(43.234375,89.7890625)"/>
<path d="M0 0 C13.53 0 27.06 0 41 0 C40.67 0.99 40.34 1.98 40 3 C37.36 3.33 34.72 3.66 32 4 C31.67 5.32 31.34 6.64 31 8 C32.32 8 33.64 8 35 8 C34.67 8.99 34.34 9.98 34 11 C32.35 11 30.7 11 29 11 C28 6.25 28 6.25 28 4 C26.9941687 4.01571045 26.9941687 4.01571045 25.96801758 4.03173828 C22.91621684 4.07343171 19.86447616 4.09936853 16.8125 4.125 C15.75740234 4.14175781 14.70230469 4.15851563 13.61523438 4.17578125 C12.08286133 4.18544922 12.08286133 4.18544922 10.51953125 4.1953125 C9.11344604 4.21102295 9.11344604 4.21102295 7.67895508 4.22705078 C4.78369188 3.98166713 2.62937303 3.20521619 0 2 C0 1.34 0 0.68 0 0 Z " fill="#C04712" transform="translate(83,79)"/>
<path d="M0 0 C3.91196353 2.19451613 5.79729241 5.06339439 7.171875 9.328125 C8.1127168 14.10760135 7.27261994 17.47670291 4.85546875 21.67578125 C1.84179835 25.78202098 -1.72243303 27.51189732 -6.625 28.3125 C-10.4375 28.4375 -10.4375 28.4375 -13.4375 26.4375 C-12.54998047 26.45103516 -12.54998047 26.45103516 -11.64453125 26.46484375 C-6.79085614 26.3388604 -6.79085614 26.3388604 -2.76171875 23.91796875 C0.78352707 18.95044142 2.21445633 14.6310851 1.5625 8.4375 C-1.6126122 4.98223084 -4.97061774 3.68407179 -9.4375 2.4375 C-3.26728723 -0.75398936 -3.26728723 -0.75398936 0 0 Z " fill="#425564" transform="translate(78.4375,105.5625)"/>
<path d="M0 0 C6.24083826 5.61326793 6.43770936 14.2797409 7.08203125 22.1796875 C7 25 7 25 5 28 C1.875 28.1875 1.875 28.1875 -1 28 C-0.96519531 26.2984375 -0.96519531 26.2984375 -0.9296875 24.5625 C-0.91091186 23.04167332 -0.8927136 21.52083943 -0.875 20 C-0.85824219 19.25621094 -0.84148437 18.51242188 -0.82421875 17.74609375 C-0.77855285 12.49451557 -1.54287549 8.0483054 -3 3 C-2.01 3.33 -1.02 3.66 0 4 C0 2.68 0 1.36 0 0 Z " fill="#4A5F6C" transform="translate(128,36)"/>
<path d="M0 0 C3.47921735 -0.02683201 6.95823039 -0.0467567 10.4375 -0.0625 C11.92733398 -0.07506836 11.92733398 -0.07506836 13.44726562 -0.08789062 C14.39150391 -0.09111328 15.33574219 -0.09433594 16.30859375 -0.09765625 C17.62041626 -0.10551147 17.62041626 -0.10551147 18.95874023 -0.11352539 C21 0 21 0 22 1 C22.04063832 2.66617115 22.042721 4.33388095 22 6 C21.27554688 6.03738281 20.55109375 6.07476562 19.8046875 6.11328125 C14.15392978 6.49753278 9.97086964 7.06846149 5 10 C4.34 10 3.68 10 3 10 C2.01 6.7 1.02 3.4 0 0 Z " fill="#DB540F" transform="translate(16,78)"/>
<path d="M0 0 C6.38654147 -0.36150235 6.38654147 -0.36150235 8.75 1.03125 C10.70902887 4.11672047 10.05505264 7.20388163 9.6875 10.6875 C9.62626953 11.38939453 9.56503906 12.09128906 9.50195312 12.81445312 C9.34897376 14.5442967 9.17637398 16.27238497 9 18 C8.01 18.33 7.02 18.66 6 19 C5.938125 17.9275 5.87625 16.855 5.8125 15.75 C4.84109701 11.26660159 3.59577374 10.60693596 0 8 C-1.29779422 5.03361322 -0.97748402 3.04106139 0 0 Z " fill="#243448" transform="translate(66,16)"/>
<path d="M0 0 C-0.35180656 2.80232125 -0.7521058 3.7935861 -2.9609375 5.6328125 C-3.75757812 6.12523438 -4.55421875 6.61765625 -5.375 7.125 C-6.16648437 7.62257813 -6.95796875 8.12015625 -7.7734375 8.6328125 C-8.50820312 9.08398438 -9.24296875 9.53515625 -10 10 C-10.99 10.66 -11.98 11.32 -13 12 C-13.99 12 -14.98 12 -16 12 C-16.2475 12.86625 -16.495 13.7325 -16.75 14.625 C-18.06778613 18.18302254 -19.80186822 20.9226155 -22 24 C-22.99 23.67 -23.98 23.34 -25 23 C-23.125 18.25 -23.125 18.25 -22 16 C-21.34 16 -20.68 16 -20 16 C-19.67 14.35 -19.34 12.7 -19 11 C-18.34 11 -17.68 11 -17 11 C-16.855625 10.236875 -16.71125 9.47375 -16.5625 8.6875 C-14.4184514 4.99973641 -12.16181528 4.80668969 -8.19140625 3.69140625 C-5.07633142 2.70857515 -3.19810202 0 0 0 Z " fill="#223746" transform="translate(114,106)"/>
<path d="M0 0 C2.31 0 4.62 0 7 0 C9.04367839 6.13103517 8.06808374 12.72500803 7 19 C6.34 19 5.68 19 5 19 C4.67 19.66 4.34 20.32 4 21 C3.34 21 2.68 21 2 21 C2 15.39 2 9.78 2 4 C1.34 4 0.68 4 0 4 C0 2.68 0 1.36 0 0 Z " fill="#405663" transform="translate(127,78)"/>
<path d="M0 0 C-2.12476008 8.23992322 -2.12476008 8.23992322 -5.375 11.0625 C-8.11353235 12.04054727 -10.11596451 12.24720304 -13 12 C-14 9 -14 9 -12.8125 5.4375 C-11 2 -11 2 -9.25 0.5625 C-6.13376181 -0.21655955 -3.19555328 -0.1229059 0 0 Z " fill="#475C67" transform="translate(52,119)"/>
<path d="M0 0 C0.99 0 1.98 0 3 0 C2.46270506 4.4280094 1.39129401 7.58737836 -0.8359375 11.44140625 C-1.40570313 12.43720703 -1.97546875 13.43300781 -2.5625 14.45898438 C-3.160625 15.48314453 -3.75875 16.50730469 -4.375 17.5625 C-4.96539062 18.59052734 -5.55578125 19.61855469 -6.1640625 20.67773438 C-7.76456846 23.45879372 -9.3745326 26.23346389 -11 29 C-11.51771973 29.93448975 -12.03543945 30.86897949 -12.56884766 31.83178711 C-13.04112793 32.54729736 -13.5134082 33.26280762 -14 34 C-14.66 34 -15.32 34 -16 34 C-15.4275813 30.53018609 -14.56138031 27.79651864 -12.890625 24.70703125 C-12.46765137 23.91594971 -12.04467773 23.12486816 -11.60888672 22.30981445 C-11.1604541 21.48570068 -10.71202148 20.66158691 -10.25 19.8125 C-9.3404013 18.11498208 -8.43154015 16.41706872 -7.5234375 14.71875 C-7.08741211 13.90664063 -6.65138672 13.09453125 -6.20214844 12.2578125 C-4.04935321 8.21454479 -2.01020428 4.11562877 0 0 Z " fill="#435B6B" transform="translate(94,16)"/>
<path d="M0 0 C2 2 2 2 2 5 C3.32 5.33 4.64 5.66 6 6 C5.7215625 6.8971875 5.7215625 6.8971875 5.4375 7.8125 C4.77906313 10.16408762 4.77906313 10.16408762 6 13 C6.99 13.33 7.98 13.66 9 14 C9 14.33 9 14.66 9 15 C4.38 15 -0.24 15 -5 15 C-3.91463082 9.48966417 -2.78609311 4.93898323 0 0 Z " fill="#ED621C" transform="translate(23,49)"/>
<path d="M0 0 C1.21236328 0.01353516 1.21236328 0.01353516 2.44921875 0.02734375 C3.37154297 0.04474609 3.37154297 0.04474609 4.3125 0.0625 C3.3225 0.5575 3.3225 0.5575 2.3125 1.0625 C2.3125 1.7225 2.3125 2.3825 2.3125 3.0625 C-0.6575 3.7225 -3.6275 4.3825 -6.6875 5.0625 C-7.0175 6.7125 -7.3475 8.3625 -7.6875 10.0625 C-8.3475 10.0625 -9.0075 10.0625 -9.6875 10.0625 C-9.3575 10.7225 -9.0275 11.3825 -8.6875 12.0625 C-7.6975 12.3925 -6.7075 12.7225 -5.6875 13.0625 C-5.6875 14.7125 -5.6875 16.3625 -5.6875 18.0625 C-10.2475 17.5825 -10.2475 17.5825 -12.0625 15.4375 C-12.97267862 11.97882124 -12.53728789 9.5223507 -11.6875 6.0625 C-8.40271551 1.02583045 -5.87903879 -0.08520346 0 0 Z " fill="#384B5A" transform="translate(30.6875,23.9375)"/>
<path d="M0 0 C-2.16298301 1.0865217 -4.33070888 2.16071833 -6.5078125 3.21875 C-7.37148438 3.6415625 -8.23515625 4.064375 -9.125 4.5 C-9.99382813 4.9228125 -10.86265625 5.345625 -11.7578125 5.78125 C-14.11341711 6.92436886 -14.11341711 6.92436886 -16 9 C-16.99 9 -17.98 9 -19 9 C-19 11.97 -19 14.94 -19 18 C-18.01 17.34 -17.02 16.68 -16 16 C-13.8125 16.375 -13.8125 16.375 -12 17 C-12.639375 17.825 -13.27875 18.65 -13.9375 19.5 C-16.46413081 23.23191406 -16.69360228 26.55723303 -17 31 C-17.33 31 -17.66 31 -18 31 C-18 28.36 -18 25.72 -18 23 C-19.32 22.67 -20.64 22.34 -22 22 C-21.505 20.515 -21.505 20.515 -21 19 C-21.18076869 17.22846687 -21.36907609 15.45769607 -21.5625 13.6875 C-21.60546875 10.734375 -21.60546875 10.734375 -21 8 C-15.66792575 2.74040054 -7.46116955 -0.43889233 0 0 Z " fill="#EF9761" transform="translate(65,20)"/>
<path d="M0 0 C0.78375 0.04125 1.5675 0.0825 2.375 0.125 C2.375 0.785 2.375 1.445 2.375 2.125 C1.385 2.62 1.385 2.62 0.375 3.125 C-0.28272428 6.15434491 -0.28272428 6.15434491 -0.625 9.125 C0.055625 9.3725 0.73625 9.62 1.4375 9.875 C4.94365083 11.36697908 8.09120368 13.19335511 11.375 15.125 C10.385 15.785 9.395 16.445 8.375 17.125 C8.375 16.465 8.375 15.805 8.375 15.125 C7.323125 15.74375 7.323125 15.74375 6.25 16.375 C3.375 17.125 3.375 17.125 0.25 15.5625 C-2.60533871 13.14166936 -4.22596857 11.58143058 -5.625 8.125 C-5.36275086 3.6667647 -5.09826266 0.24277441 0 0 Z " fill="#3E535F" transform="translate(101.625,3.875)"/>
<path d="M0 0 C2.31 0 4.62 0 7 0 C6.67 0.66 6.34 1.32 6 2 C4.35 1.67 2.7 1.34 1 1 C1 2.65 1 4.3 1 6 C22.78 6 44.56 6 67 6 C68 12 68 12 67 14 C66.34 14 65.68 14 65 14 C65 12.02 65 10.04 65 8 C43.55 7.67 22.1 7.34 0 7 C0 4.69 0 2.38 0 0 Z " fill="#5F6F77" transform="translate(69,60)"/>
<path d="M0 0 C0 2.62113708 -0.31292445 4.50935112 -1 7 C-0.34 7.33 0.32 7.66 1 8 C0.8125 10.375 0.8125 10.375 0 13 C-2.375 14.1875 -2.375 14.1875 -5 15 C-5.99 15.66 -6.98 16.32 -8 17 C-9.32 17 -10.64 17 -12 17 C-11.06075727 12.86733198 -10.45680164 11.32628688 -6.9375 8.8125 C-5.968125 8.214375 -4.99875 7.61625 -4 7 C-3.67 6.01 -3.34 5.02 -3 4 C-4.98 4.99 -4.98 4.99 -7 6 C-5.9024777 3.00675737 -5.32317108 2.15389099 -2.375 0.75 C-1.59125 0.5025 -0.8075 0.255 0 0 Z " fill="#EF671F" transform="translate(116,93)"/>
<path d="M0 0 C0.66 0.33 1.32 0.66 2 1 C-0.12547529 7.04942966 -0.12547529 7.04942966 -3 9 C-6.0625 9.3125 -6.0625 9.3125 -9 9 C-9.66 8.34 -10.32 7.68 -11 7 C-10.8125 4.5 -10.8125 4.5 -10 2 C-6.33134759 -0.44576827 -4.32799657 -0.23607254 0 0 Z " fill="#60717A" transform="translate(47,14)"/>
<path d="M0 0 C0.8971875 0.5259375 0.8971875 0.5259375 1.8125 1.0625 C2 3.4375 2 3.4375 1.8125 6.0625 C0.8225 6.7225 -0.1675 7.3825 -1.1875 8.0625 C-1.52812647 11.89454782 -1.06540928 15.33138555 -0.1875 19.0625 C-0.8475 19.3925 -1.5075 19.7225 -2.1875 20.0625 C-3.1775 17.7525 -4.1675 15.4425 -5.1875 13.0625 C-6.1775 14.0525 -7.1675 15.0425 -8.1875 16.0625 C-7.4375 11.3125 -7.4375 11.3125 -5.1875 9.0625 C-5.02062552 6.47895782 -5.02062552 6.47895782 -5.1875 4.0625 C-5.8475 3.7325 -6.5075 3.4025 -7.1875 3.0625 C-6.5275 3.0625 -5.8675 3.0625 -5.1875 3.0625 C-5.1875 2.0725 -5.1875 1.0825 -5.1875 0.0625 C-2.1875 -0.9375 -2.1875 -0.9375 0 0 Z " fill="#F7661D" transform="translate(105.1875,84.9375)"/>
<path d="M0 0 C0.66 0.33 1.32 0.66 2 1 C1.67 2.32 1.34 3.64 1 5 C2.65 5.33 4.3 5.66 6 6 C5.34 6.66 4.68 7.32 4 8 C3.01 7.67 2.02 7.34 1 7 C1.33 7.66 1.66 8.32 2 9 C2.99 9 3.98 9 5 9 C5 9.66 5 10.32 5 11 C5.66 11.66 6.32 12.32 7 13 C6.34 13.66 5.68 14.32 5 15 C1.5 14.8125 1.5 14.8125 -2 14 C-4.48038907 10.2794164 -4.46337203 8.40203429 -4 4 C-2 1.5625 -2 1.5625 0 0 Z " fill="#324755" transform="translate(54,39)"/>
<path d="M0 0 C12.21 0 24.42 0 37 0 C37 0.33 37 0.66 37 1 C34.69 1.33 32.38 1.66 30 2 C29.67 3.32 29.34 4.64 29 6 C30.32 6 31.64 6 33 6 C32.67 6.99 32.34 7.98 32 9 C30.35 9 28.7 9 27 9 C26 4.25 26 4.25 26 2 C25.31897217 2.01047363 24.63794434 2.02094727 23.9362793 2.03173828 C20.85339034 2.07328878 17.77056029 2.09932311 14.6875 2.125 C13.61564453 2.14175781 12.54378906 2.15851563 11.43945312 2.17578125 C10.41142578 2.18222656 9.38339844 2.18867187 8.32421875 2.1953125 C7.37635498 2.20578613 6.42849121 2.21625977 5.4519043 2.22705078 C3 2 3 2 0 0 Z " fill="#D45918" transform="translate(85,81)"/>
<path d="M0 0 C0.71285156 0.15984375 1.42570312 0.3196875 2.16015625 0.484375 C2.74667969 0.73703125 3.33320312 0.9896875 3.9375 1.25 C4.2675 2.24 4.5975 3.23 4.9375 4.25 C3.9475 4.745 3.9475 4.745 2.9375 5.25 C2.20674352 7.5640622 1.53611742 9.89828869 0.9375 12.25 C-0.3825 11.92 -1.7025 11.59 -3.0625 11.25 C-3.3925 8.94 -3.7225 6.63 -4.0625 4.25 C-4.7225 4.25 -5.3825 4.25 -6.0625 4.25 C-6.0625 2.93 -6.0625 1.61 -6.0625 0.25 C-3.5679485 -0.99727575 -2.66878506 -0.63934597 0 0 Z " fill="#F37838" transform="translate(71.0625,108.75)"/>
<path d="M0 0 C0.33 0.99 0.66 1.98 1 3 C-1.64 3 -4.28 3 -7 3 C-7 3.66 -7 4.32 -7 5 C-7.804375 5.268125 -8.60875 5.53625 -9.4375 5.8125 C-10.283125 6.204375 -11.12875 6.59625 -12 7 C-12.33 7.99 -12.66 8.98 -13 10 C-14.65 10.33 -16.3 10.66 -18 11 C-17.7027815 7.53245088 -17.01217428 6.01530481 -14.8125 3.25 C-10.20505353 -0.43595718 -5.71633773 -0.13610328 0 0 Z " fill="#3D505D" transform="translate(36,88)"/>
<path d="M0 0 C-3.02325581 8.01162791 -3.02325581 8.01162791 -7 10 C-9.75 10.1875 -9.75 10.1875 -12 10 C-11.51834131 3.61802233 -11.51834131 3.61802233 -9.375 1.0625 C-6.16962495 -0.37148358 -3.46772635 -0.20006114 0 0 Z " fill="#9AA7AB" transform="translate(19,52)"/>
<path d="M0 0 C11.55 0 23.1 0 35 0 C34.34 1.32 33.68 2.64 33 4 C33 3.34 33 2.68 33 2 C22.77 2 12.54 2 2 2 C1.67 2.99 1.34 3.98 1 5 C0.67 3.35 0.34 1.7 0 0 Z " fill="#86959B" transform="translate(16,106)"/>
<path d="M0 0 C2.41674224 -0.02705308 4.8331794 -0.04686438 7.25 -0.0625 C7.93191406 -0.07087891 8.61382812 -0.07925781 9.31640625 -0.08789062 C14.55599416 -0.11332552 14.55599416 -0.11332552 16.95898438 0.5 C19.15978633 1.03914383 21.06511327 1.11382062 23.328125 1.09765625 C24.12734375 1.09443359 24.9265625 1.09121094 25.75 1.08789062 C26.575 1.07951172 27.4 1.07113281 28.25 1.0625 C29.09046875 1.05798828 29.9309375 1.05347656 30.796875 1.04882812 C32.86461401 1.03707961 34.93231624 1.01914522 37 1 C37 1.66 37 2.32 37 3 C24.46 3 11.92 3 -1 3 C-0.67 2.01 -0.34 1.02 0 0 Z " fill="#D04707" transform="translate(15,100)"/>
<path d="M0 0 C0.33 0 0.66 0 1 0 C0.6002577 5.79626333 -0.01159868 9.50026517 -4 14 C-8.03814851 16.96369658 -11.47271888 18.36503971 -16.5 17.75 C-17.655 17.5025 -18.81 17.255 -20 17 C-20 16.67 -20 16.34 -20 16 C-19.11248047 16.01353516 -19.11248047 16.01353516 -18.20703125 16.02734375 C-13.3619025 15.91190467 -13.3619025 15.91190467 -9.359375 13.48046875 C-8.11449625 11.69939222 -7.03737418 9.9081019 -6 8 C-5.34 7.01 -4.68 6.02 -4 5 C-4 5.66 -4 6.32 -4 7 C-3.01 7 -2.02 7 -1 7 C-0.67 4.69 -0.34 2.38 0 0 Z " fill="#4C5C67" transform="translate(85,116)"/>
<path d="M0 0 C0.33 0 0.66 0 1 0 C1.10957031 0.69867188 1.21914063 1.39734375 1.33203125 2.1171875 C1.49058594 3.02726562 1.64914063 3.93734375 1.8125 4.875 C1.96332031 5.77992187 2.11414062 6.68484375 2.26953125 7.6171875 C2.83051301 10.34412478 2.83051301 10.34412478 6 12 C10.95745506 12.31983581 14.48038922 12.25980539 19 10 C17.63016497 13.16115776 17.0109362 13.9927092 14 16 C10.93473649 16.54531842 8.06591671 16.54325893 5 16 C2.24430553 13.81840855 0.56411253 12.12822506 -1 9 C-0.91348369 7.45386986 -0.75997364 5.91090613 -0.5625 4.375 C-0.46066406 3.55773437 -0.35882813 2.74046875 -0.25390625 1.8984375 C-0.17011719 1.27195312 -0.08632813 0.64546875 0 0 Z " fill="#BC5218" transform="translate(61,113)"/>
<path d="M0 0 C1.32 0 2.64 0 4 0 C4.8353125 0.99 4.8353125 0.99 5.6875 2 C8.80838732 4.69914579 10.97959894 4.36443126 14.9765625 4.23828125 C17.06639997 4.10827465 17.06639997 4.10827465 19 3 C18.34 4.65 17.68 6.3 17 8 C6.09949489 8.7823329 6.09949489 8.7823329 1.75 5.6875 C0 3 0 3 0 0 Z " fill="#243A4B" transform="translate(58,124)"/>
<path d="M0 0 C0.66 0 1.32 0 2 0 C3.67257264 3.78908876 5.33705115 7.58167885 7 11.375 C7.47695312 12.45523438 7.95390625 13.53546875 8.4453125 14.6484375 C8.89648438 15.6796875 9.34765625 16.7109375 9.8125 17.7734375 C10.23144531 18.72653809 10.65039062 19.67963867 11.08203125 20.66162109 C12 23 12 23 12 25 C11.34 25 10.68 25 10 25 C6 18.5 6 18.5 6 14 C5.34 14 4.68 14 4 14 C-0.59225513 4.58997722 -0.59225513 4.58997722 0 0 Z " fill="#5F5B5C" transform="translate(81,86)"/>
<path d="M0 0 C2.50159817 2.23984449 3.76601589 4.30436023 5.0859375 7.37890625 C5.45976563 8.21744141 5.83359375 9.05597656 6.21875 9.91992188 C6.98977045 11.68206827 7.75280292 13.44773131 8.5078125 15.21679688 C10.64456627 20.25900462 10.64456627 20.25900462 14.7890625 23.58984375 C15.51867187 23.72519531 16.24828125 23.86054687 17 24 C13.85573768 25.04808744 12.96566827 25.25868479 10 24 C8.62792969 22.08227539 8.62792969 22.08227539 7.421875 19.59765625 C6.76445313 18.26250977 6.76445313 18.26250977 6.09375 16.90039062 C5.6503125 15.96388672 5.206875 15.02738281 4.75 14.0625 C4.29109375 13.12986328 3.8321875 12.19722656 3.359375 11.23632812 C0 4.3226144 0 4.3226144 0 2 C-0.66 2 -1.32 2 -2 2 C-2.33 2.66 -2.66 3.32 -3 4 C-3 3.01 -3 2.02 -3 1 C-2.01 0.67 -1.02 0.34 0 0 Z " fill="#5F6E76" transform="translate(58,76)"/>
<path d="M0 0 C1 2 1 2 1 7 C15.19 7.33 29.38 7.66 44 8 C44 6.35 44 4.7 44 3 C44.33 3 44.66 3 45 3 C45 4.98 45 6.96 45 9 C38.46721214 9.02527002 31.93443679 9.04283292 25.40161133 9.05493164 C23.17732268 9.05997317 20.95303737 9.06680623 18.72875977 9.07543945 C15.53921691 9.08751298 12.34971771 9.09322996 9.16015625 9.09765625 C7.65860741 9.10539818 7.65860741 9.10539818 6.12672424 9.11329651 C5.20584518 9.11337204 4.28496613 9.11344757 3.33618164 9.11352539 C2.11373497 9.11685631 2.11373497 9.11685631 0.86659241 9.12025452 C-1 9 -1 9 -2 8 C-2.1875 5.0625 -2.1875 5.0625 -2 2 C-1.34 1.34 -0.68 0.68 0 0 Z " fill="#F6BF99" transform="translate(79,55)"/>
<path d="M0 0 C0.33 0 0.66 0 1 0 C1.33 4.62 1.66 9.24 2 14 C2.99 14.33 3.98 14.66 5 15 C4.71758359 16.46015291 4.42373386 17.91809793 4.125 19.375 C3.96257812 20.18710938 3.80015625 20.99921875 3.6328125 21.8359375 C3 24 3 24 1 26 C-0.32 25.34 -1.64 24.68 -3 24 C-2.5359375 22.515 -2.5359375 22.515 -2.0625 21 C-0.31795655 14.17029798 -0.32328707 7.01022481 0 0 Z " fill="#62747E" transform="translate(128,82)"/>
<path d="M0 0 C2.475 0.99 2.475 0.99 5 2 C4.505 2.928125 4.01 3.85625 3.5 4.8125 C1.78710148 7.86527516 1.78710148 7.86527516 2 11 C2.99 10.67 3.98 10.34 5 10 C4.67 10.99 4.34 11.98 4 13 C1.69 13 -0.62 13 -3 13 C-3.27429625 7.60550707 -3.36055646 4.48074195 0 0 Z " fill="#5E6F78" transform="translate(99,128)"/>
<path d="M0 0 C3.47914941 -0.02887814 6.95826831 -0.04675687 10.4375 -0.0625 C11.92733398 -0.07506836 11.92733398 -0.07506836 13.44726562 -0.08789062 C14.39150391 -0.09111328 15.33574219 -0.09433594 16.30859375 -0.09765625 C17.62041626 -0.10551147 17.62041626 -0.10551147 18.95874023 -0.11352539 C21 0 21 0 22 1 C22 2.65 22 4.3 22 6 C18.37 6 14.74 6 11 6 C11 5.67 11 5.34 11 5 C8.69 4.67 6.38 4.34 4 4 C4 3.67 4 3.34 4 3 C5.916588 2.97287847 7.8332873 2.95354903 9.75 2.9375 C11.35101562 2.92009766 11.35101562 2.92009766 12.984375 2.90234375 C15.53368501 2.98489913 17.57933591 3.25382442 20 4 C20 3.01 20 2.02 20 1 C14.06 1 8.12 1 2 1 C1.67 1.99 1.34 2.98 1 4 C0.67 2.68 0.34 1.36 0 0 Z " fill="#DD9F76" transform="translate(16,78)"/>
<path d="M0 0 C2 1.125 2 1.125 4 3 C4.25 6.1875 4.25 6.1875 4 9 C3.34 9 2.68 9 2 9 C2.33 10.98 2.66 12.96 3 15 C-0.875 13.25 -0.875 13.25 -2 11 C-2.12005453 9.50350638 -2.17531451 8.00125207 -2.1875 6.5 C-2.20167969 5.7059375 -2.21585938 4.911875 -2.23046875 4.09375 C-2 2 -2 2 0 0 Z " fill="#F8671E" transform="translate(64,110)"/>
<path d="M0 0 C2.97 0 5.94 0 9 0 C9 1.65 9 3.3 9 5 C2.375 6.125 2.375 6.125 -1 5 C-1.33 4.01 -1.66 3.02 -2 2 C-1.34 2 -0.68 2 0 2 C0 1.34 0 0.68 0 0 Z " fill="#2F4554" transform="translate(26,41)"/>
<path d="M0 0 C2.52480693 2.52480693 2.55738633 4.13823034 3.125 7.625 C3.29257812 8.62789062 3.46015625 9.63078125 3.6328125 10.6640625 C3.75398438 11.43492188 3.87515625 12.20578125 4 13 C2.02 13.99 2.02 13.99 0 15 C-2.4964921 10.30072075 -1.91465973 7.07220398 -1 2 C-0.67 1.34 -0.34 0.68 0 0 Z " fill="#344653" transform="translate(57,111)"/>
<path d="M0 0 C0.66 0.33 1.32 0.66 2 1 C1.67 4.3 1.34 7.6 1 11 C1.66 11.33 2.32 11.66 3 12 C1.02 12.99 1.02 12.99 -1 14 C-1.33 12.68 -1.66 11.36 -2 10 C-4.64 9.67 -7.28 9.34 -10 9 C-10.33 10.32 -10.66 11.64 -11 13 C-12.32 12.34 -13.64 11.68 -15 11 C-13.68 10.67 -12.36 10.34 -11 10 C-10.67 8.68 -10.34 7.36 -10 6 C-9.67 6.33 -9.34 6.66 -9 7 C-6.66702567 7.04092937 -4.33294775 7.04241723 -2 7 C-0.49069817 3.6136749 -0.49069817 3.6136749 0 0 Z " fill="#61737C" transform="translate(36,32)"/>
<path d="M0 0 C3.80984844 2.77079887 4.06840752 6.62868145 5 11 C3.68 10.34 2.36 9.68 1 9 C1 13.62 1 18.24 1 23 C0.67 23 0.34 23 0 23 C-0.13277344 21.89140625 -0.26554687 20.7828125 -0.40234375 19.640625 C-0.58059757 18.1770673 -0.75899028 16.71352651 -0.9375 15.25 C-1.02451172 14.52039062 -1.11152344 13.79078125 -1.20117188 13.0390625 C-1.62027409 9.62415558 -2.117274 6.32396457 -3 3 C-2.01 3.33 -1.02 3.66 0 4 C0 2.68 0 1.36 0 0 Z " fill="#6C7C84" transform="translate(128,36)"/>
<path d="M0 0 C-0.33 1.98 -0.66 3.96 -1 6 C-1.33 5.34 -1.66 4.68 -2 4 C-2.5775 4.350625 -3.155 4.70125 -3.75 5.0625 C-6.35801776 6.14917407 -7.39417629 5.93065133 -10 5 C-9.67 3.35 -9.34 1.7 -9 0 C-2.25 -1.125 -2.25 -1.125 0 0 Z " fill="#E3611A" transform="translate(124,82)"/>
<path d="M0 0 C5.94 0 11.88 0 18 0 C18 0.99 18 1.98 18 3 C12.06 3 6.12 3 0 3 C0 2.01 0 1.02 0 0 Z " fill="#B94310" transform="translate(18,79)"/>
<path d="M0 0 C0.33 0.66 0.66 1.32 1 2 C1.66 2 2.32 2 3 2 C4.38232443 3.62626404 5.71937515 5.2925002 7 7 C6.01 7.495 6.01 7.495 5 8 C5.33 9.98 5.66 11.96 6 14 C4.68 14 3.36 14 2 14 C0.66416101 9.15758367 -0.25328119 5.06562383 0 0 Z " fill="#D6622B" transform="translate(46,49)"/>
<path d="M0 0 C2.31 0 4.62 0 7 0 C7.66 1.65 8.32 3.3 9 5 C8.34 5.66 7.68 6.32 7 7 C4.875 6.625 4.875 6.625 3 6 C2.67 4.68 2.34 3.36 2 2 C1.34 2 0.68 2 0 2 C0 1.34 0 0.68 0 0 Z " fill="#EC9866" transform="translate(7,87)"/>
<path d="M0 0 C0.66 0 1.32 0 2 0 C2 0.99 2 1.98 2 3 C2.33 2.34 2.66 1.68 3 1 C11.57142857 0.71428571 11.57142857 0.71428571 15 3 C14.34 3.66 13.68 4.32 13 5 C13 4.34 13 3.68 13 3 C12.20335937 3.34224609 12.20335937 3.34224609 11.390625 3.69140625 C10.68421875 3.97886719 9.9778125 4.26632813 9.25 4.5625 C8.55390625 4.85253906 7.8578125 5.14257812 7.140625 5.44140625 C4.69987216 6.07831803 3.3596345 5.80248831 1 5 C0.67 3.35 0.34 1.7 0 0 Z " fill="#E35B14" transform="translate(24,49)"/>
<path d="M0 0 C0.99 0 1.98 0 3 0 C5.09350689 3.4019487 5.17942163 6.05272412 5 10 C3.35 9.67 1.7 9.34 0 9 C0 6.03 0 3.06 0 0 Z " fill="#D45A1E" transform="translate(89,112)"/>
<path d="M0 0 C2.33909307 3.5086396 2.41291057 4.87089433 2 9 C0.6875 11.875 0.6875 11.875 -1 14 C-1.99 14 -2.98 14 -4 14 C-4.125 11.625 -4.125 11.625 -4 9 C-3.34 8.34 -2.68 7.68 -2 7 C-1.01 7 -0.02 7 1 7 C0.67 4.69 0.34 2.38 0 0 Z " fill="#495E6C" transform="translate(41,29)"/>
<path d="M0 0 C0.33 0.66 0.66 1.32 1 2 C1.99 2 2.98 2 4 2 C7 5.33333333 7 5.33333333 7 8 C6.01 8.33 5.02 8.66 4 9 C3.34 7.02 2.68 5.04 2 3 C1.01 3 0.02 3 -1 3 C-1 5.97 -1 8.94 -1 12 C-0.01 12.33 0.98 12.66 2 13 C0.68 13 -0.64 13 -2 13 C-2.33 9.04 -2.66 5.08 -3 1 C-2.01 1.33 -1.02 1.66 0 2 C0 1.34 0 0.68 0 0 Z " fill="#C69375" transform="translate(90,109)"/>
<path d="M0 0 C2.3125 -0.25 2.3125 -0.25 5 0 C6.8125 1.8125 6.8125 1.8125 8 4 C8 4.99 8 5.98 8 7 C4.84859577 6.65930765 3.39218439 6.41923159 1.1875 4.0625 C0 2 0 2 0 0 Z " fill="#334655" transform="translate(41,92)"/>
<path d="M0 0 C0 3.96 0 7.92 0 12 C-1.65 12 -3.3 12 -5 12 C-4.71905418 10.1858073 -4.42493567 8.37364999 -4.125 6.5625 C-3.96257812 5.55316406 -3.80015625 4.54382812 -3.6328125 3.50390625 C-3.42398438 2.67761719 -3.21515625 1.85132813 -3 1 C-1 0 -1 0 0 0 Z " fill="#122B3E" transform="translate(133,50)"/>
<path d="M0 0 C0.66 0.33 1.32 0.66 2 1 C1.67 1.66 1.34 2.32 1 3 C1.99 3.33 2.98 3.66 4 4 C-0.30769231 7.07692308 -0.30769231 7.07692308 -3.8125 6.6875 C-4.534375 6.460625 -5.25625 6.23375 -6 6 C-5 3 -5 3 -2.5625 1.25 C-1.716875 0.8375 -0.87125 0.425 0 0 Z " fill="#465A66" transform="translate(107,123)"/>
<path d="M0 0 C0.763125 0.20625 1.52625 0.4125 2.3125 0.625 C1.3125 3.625 1.3125 3.625 -1.6875 5.625 C-4.375 5.75 -4.375 5.75 -6.6875 5.625 C-6.375 3.75 -6.375 3.75 -5.6875 1.625 C-2.6875 -0.375 -2.6875 -0.375 0 0 Z " fill="#344957" transform="translate(114.6875,120.375)"/>
<path d="M0 0 C1.32 0 2.64 0 4 0 C4.125 6.625 4.125 6.625 3 10 C2.01 10 1.02 10 0 10 C0 6.7 0 3.4 0 0 Z " fill="#1F394A" transform="translate(81,113)"/>
<path d="M0 0 C0.66 3.63 1.32 7.26 2 11 C1.01 11.495 1.01 11.495 0 12 C-0.99 9.69 -1.98 7.38 -3 5 C-3.99 5.99 -4.98 6.98 -6 8 C-5.65442041 4.8033888 -5.42865983 3.38847297 -3 1.1875 C-1 0 -1 0 0 0 Z " fill="#E8661F" transform="translate(103,93)"/>
<path d="M0 0 C0.66 0.33 1.32 0.66 2 1 C1.67 2.32 1.34 3.64 1 5 C2.65 5.33 4.3 5.66 6 6 C5.34 6.66 4.68 7.32 4 8 C3.01 7.67 2.02 7.34 1 7 C1.33 7.99 1.66 8.98 2 10 C1.34 10 0.68 10 0 10 C-0.66 8.68 -1.32 7.36 -2 6 C-2.33 7.65 -2.66 9.3 -3 11 C-3.33 11 -3.66 11 -4 11 C-4.49230769 4.6 -4.49230769 4.6 -2 1.5625 C-1.34 1.046875 -0.68 0.53125 0 0 Z " fill="#55666F" transform="translate(54,39)"/>
<path d="M0 0 C0.99 0 1.98 0 3 0 C2.54663921 4.87362847 1.2910841 7.39042389 -2 11 C-2.95465783 8.83032311 -3.14401212 7.43671207 -2.3984375 5.17578125 C-1.64129615 3.4315257 -0.82390802 1.71372869 0 0 Z " fill="#506674" transform="translate(94,16)"/>
<path d="M0 0 C0.78375 0.04125 1.5675 0.0825 2.375 0.125 C2.375 0.785 2.375 1.445 2.375 2.125 C1.055 2.455 -0.265 2.785 -1.625 3.125 C-2.285 5.435 -2.945 7.745 -3.625 10.125 C-4.285 9.465 -4.945 8.805 -5.625 8.125 C-4.96762948 0.23655378 -4.96762948 0.23655378 0 0 Z " fill="#596C77" transform="translate(101.625,3.875)"/>
<path d="M0 0 C1.32 0.66 2.64 1.32 4 2 C-1.79424351 5.59058175 -5.30403958 6.43484866 -12 5 C-12 4.67 -12 4.34 -12 4 C-11.38511719 3.96261719 -10.77023438 3.92523438 -10.13671875 3.88671875 C-9.32847656 3.82097656 -8.52023438 3.75523437 -7.6875 3.6875 C-6.88699219 3.62949219 -6.08648437 3.57148438 -5.26171875 3.51171875 C-2.63727666 2.91793306 -1.69179328 2.04219706 0 0 Z " fill="#5E6F7A" transform="translate(77,128)"/>
<path d="M0 0 C2.875 -0.1875 2.875 -0.1875 6 0 C8 3 8 3 8 7 C6.25 6.875 6.25 6.875 4 6 C1.75 2.9375 1.75 2.9375 0 0 Z " fill="#CD6631" transform="translate(82,104)"/>
<path d="M0 0 C0.66 0.33 1.32 0.66 2 1 C2.40729228 3.32156597 2.74438677 5.6568787 3 8 C1.35 8.66 -0.3 9.32 -2 10 C-1.979375 9.236875 -1.95875 8.47375 -1.9375 7.6875 C-1.87057159 4.89814214 -1.87057159 4.89814214 -3 2 C-2.01 2 -1.02 2 0 2 C0 1.34 0 0.68 0 0 Z " fill="#152E3F" transform="translate(39,28)"/>
<path d="M0 0 C-0.50603992 2.16874252 -0.99983813 3.99967627 -2 6 C-4.31 6 -6.62 6 -9 6 C-8 3 -8 3 -5.0625 1.3125 C-2 0 -2 0 0 0 Z " fill="#273E4E" transform="translate(48,16)"/>
<path d="M0 0 C1.48576635 4.01156915 0.80747878 4.48130304 -1 9 C2.96 9.33 6.92 9.66 11 10 C11 10.33 11 10.66 11 11 C6.38 11 1.76 11 -3 11 C-1.125 2.25 -1.125 2.25 0 0 Z " fill="#F2C098" transform="translate(21,53)"/>
<path d="M0 0 C2.31 0.33 4.62 0.66 7 1 C6.67 4.96 6.34 8.92 6 13 C5.67 13 5.34 13 5 13 C5 10.36 5 7.72 5 5 C4.360625 4.731875 3.72125 4.46375 3.0625 4.1875 C1 3 1 3 0 0 Z " fill="#6B4737" transform="translate(69,21)"/>
<path d="M0 0 C-0.875 4.875 -0.875 4.875 -2 6 C-3.99958364 6.04080783 -6.00045254 6.04254356 -8 6 C-3.375 0 -3.375 0 0 0 Z " fill="#273E4C" transform="translate(49,124)"/>
<path d="M0 0 C0.33 1.32 0.66 2.64 1 4 C4.3 4.33 7.6 4.66 11 5 C10.34 6.32 9.68 7.64 9 9 C6.03 8.01 3.06 7.02 0 6 C0 4.02 0 2.04 0 0 Z " fill="#E49362" transform="translate(81,16)"/>
<path d="M0 0 C0.66 0 1.32 0 2 0 C2.28571429 8.57142857 2.28571429 8.57142857 0 12 C-0.66 11.67 -1.32 11.34 -2 11 C-1.85957123 9.35369672 -1.71250671 7.70795821 -1.5625 6.0625 C-1.48128906 5.14597656 -1.40007812 4.22945312 -1.31640625 3.28515625 C-1 1 -1 1 0 0 Z " fill="#243C4A" transform="translate(79,14)"/>
<path d="M0 0 C1.32 0 2.64 0 4 0 C2.87548273 2.9719385 1.77706209 5.33440687 0 8 C-0.99 7.67 -1.98 7.34 -3 7 C-1.125 2.25 -1.125 2.25 0 0 Z " fill="#677883" transform="translate(92,122)"/>
<path d="M0 0 C2 2 2 2 2 5 C3.32 5.33 4.64 5.66 6 6 C3.33333333 7.33333333 0.66666667 8.66666667 -2 10 C-1.34 6.7 -0.68 3.4 0 0 Z " fill="#F57028" transform="translate(23,49)"/>
<path d="M0 0 C0.33 0.99 0.66 1.98 1 3 C-2.96 3 -6.92 3 -11 3 C-10 1 -10 1 -8.3125 0.375 C-5.51555886 -0.07855802 -2.82858003 -0.06428591 0 0 Z " fill="#0D2839" transform="translate(36,88)"/>
<path d="M0 0 C3.63 1.98 7.26 3.96 11 6 C10.01 6.66 9.02 7.32 8 8 C8 7.34 8 6.68 8 6 C6.35 6.66 4.7 7.32 3 8 C2.67 7.34 2.34 6.68 2 6 C2.33 5.34 2.66 4.68 3 4 C2.34 4 1.68 4 1 4 C0.67 2.68 0.34 1.36 0 0 Z " fill="#586B75" transform="translate(102,13)"/>
<path d="M0 0 C3.375 -0.125 3.375 -0.125 7 0 C7.66 0.66 8.32 1.32 9 2 C8.67 2.99 8.34 3.98 8 5 C5.69 4.01 3.38 3.02 1 2 C0.67 2.66 0.34 3.32 0 4 C0 2.68 0 1.36 0 0 Z " fill="#192E3C" transform="translate(66,16)"/>
<path d="M0 0 C0.99 0.33 1.98 0.66 3 1 C2.125 5.75 2.125 5.75 1 8 C0.34 8 -0.32 8 -1 8 C-1.66 6.35 -2.32 4.7 -3 3 C-2.01 2.01 -1.02 1.02 0 0 Z " fill="#3B505C" transform="translate(126,105)"/>
<path d="M0 0 C0.66 0.33 1.32 0.66 2 1 C2 1.99 2 2.98 2 4 C3.32 4 4.64 4 6 4 C5.67 4.99 5.34 5.98 5 7 C3.35 7 1.7 7 0 7 C-1.125 2.25 -1.125 2.25 0 0 Z " fill="#243347" transform="translate(112,83)"/>
<path d="M0 0 C0.99 0 1.98 0 3 0 C2.33333333 4.66666667 1.66666667 9.33333333 1 14 C0.67 14 0.34 14 0 14 C-0.19393875 11.85473901 -0.37998676 9.70876323 -0.5625 7.5625 C-0.71912109 5.77005859 -0.71912109 5.77005859 -0.87890625 3.94140625 C-0.91886719 2.97074219 -0.95882812 2.00007813 -1 1 C-0.67 0.67 -0.34 0.34 0 0 Z " fill="#1A3445" transform="translate(129,80)"/>
<path d="M0 0 C2.97 0 5.94 0 9 0 C8.01 0.495 8.01 0.495 7 1 C7 1.66 7 2.32 7 3 C4.36 3.33 1.72 3.66 -1 4 C-0.67 2.68 -0.34 1.36 0 0 Z " fill="#162D3D" transform="translate(26,24)"/>
<path d="M0 0 C1.11375 0.350625 2.2275 0.70125 3.375 1.0625 C6.80264476 2.37239331 6.80264476 2.37239331 9 1 C8.67 2.32 8.34 3.64 8 5 C7.05125 4.835 6.1025 4.67 5.125 4.5 C2.19831099 3.9473365 2.19831099 3.9473365 0 4 C-0.33 4.66 -0.66 5.32 -1 6 C-1.33 4.68 -1.66 3.36 -2 2 C-1.34 2 -0.68 2 0 2 C0 1.34 0 0.68 0 0 Z " fill="#333D48" transform="translate(67,18)"/>
<path d="M0 0 C1.65 0.33 3.3 0.66 5 1 C4.67 2.32 4.34 3.64 4 5 C2.35 4.67 0.7 4.34 -1 4 C-0.67 2.68 -0.34 1.36 0 0 Z " fill="#EC9563" transform="translate(51,130)"/>
<path d="M0 0 C0.66 0.33 1.32 0.66 2 1 C0.35 2.65 -1.3 4.3 -3 6 C-2.34 6.66 -1.68 7.32 -1 8 C-2.65 8 -4.3 8 -6 8 C-7 5 -7 5 -6.0625 2.8125 C-5.5365625 1.9153125 -5.5365625 1.9153125 -5 1 C-4.67 1.99 -4.34 2.98 -4 4 C-2.68 2.68 -1.36 1.36 0 0 Z " fill="#ABB5B6" transform="translate(45,123)"/>
<path d="M0 0 C1.98 0.495 1.98 0.495 4 1 C4.625 2.875 4.625 2.875 5 5 C4.34 5.66 3.68 6.32 3 7 C1.68 6.01 0.36 5.02 -1 4 C-0.67 2.68 -0.34 1.36 0 0 Z " fill="#374C5B" transform="translate(79,108)"/>
<path d="M0 0 C1 3 1 3 -0.4375 6.1875 C-1.2109375 7.5796875 -1.2109375 7.5796875 -2 9 C-1.34 9.33 -0.68 9.66 0 10 C-1.98 10 -3.96 10 -6 10 C-6 9.01 -6 8.02 -6 7 C-5.01 7 -4.02 7 -3 7 C-2.690625 6.21625 -2.38125 5.4325 -2.0625 4.625 C-1 2 -1 2 0 0 Z " fill="#1C3748" transform="translate(106,101)"/>
<path d="M0 0 C0.66 0.99 1.32 1.98 2 3 C0 5 0 5 -2.1640625 5.1953125 C-3.38222656 5.16050781 -3.38222656 5.16050781 -4.625 5.125 C-5.44226562 5.10695313 -6.25953125 5.08890625 -7.1015625 5.0703125 C-7.72804687 5.04710937 -8.35453125 5.02390625 -9 5 C-9.33 4.34 -9.66 3.68 -10 3 C-6.7 2.67 -3.4 2.34 0 2 C0 1.34 0 0.68 0 0 Z " fill="#42545F" transform="translate(61,53)"/>
<path d="M0 0 C0.66 0.99 1.32 1.98 2 3 C0.6875 5.9375 0.6875 5.9375 -1 9 C-1.99 9.33 -2.98 9.66 -4 10 C-4 8.35 -4 6.7 -4 5 C-3.01 4.67 -2.02 4.34 -1 4 C-0.26676204 1.98491642 -0.26676204 1.98491642 0 0 Z " fill="#283948" transform="translate(98,113)"/>
<path d="M0 0 C0.99 1.485 0.99 1.485 2 3 C2.66 2.01 3.32 1.02 4 0 C4.66 2.31 5.32 4.62 6 7 C4.02 7.99 4.02 7.99 2 9 C0.50178941 5.62902617 0 3.79557881 0 0 Z " fill="#506471" transform="translate(55,117)"/>
<path d="M0 0 C0.66 0.33 1.32 0.66 2 1 C2.37211538 8.56634615 2.37211538 8.56634615 0.48828125 10.76171875 C-0.00285156 11.17035156 -0.49398437 11.57898438 -1 12 C-1.02687279 10.18757948 -1.04633715 8.37504767 -1.0625 6.5625 C-1.07410156 5.55316406 -1.08570312 4.54382813 -1.09765625 3.50390625 C-1 1 -1 1 0 0 Z " fill="#DA6025" transform="translate(98,103)"/>
<path d="M0 0 C-0.66 2.97 -1.32 5.94 -2 9 C-2.66 9 -3.32 9 -4 9 C-4.6875 6.1875 -4.6875 6.1875 -5 3 C-3.41464922 0.73521317 -2.79754986 0 0 0 Z " fill="#293E4D" transform="translate(25,25)"/>
<path d="M0 0 C2.5 1.1875 2.5 1.1875 5 3 C5.3125 5.6875 5.3125 5.6875 5 8 C4.34 8 3.68 8 3 8 C3 7.01 3 6.02 3 5 C2.34 5 1.68 5 1 5 C1 4.34 1 3.68 1 3 C0.01 2.67 -0.98 2.34 -2 2 C-1.34 2 -0.68 2 0 2 C0 1.34 0 0.68 0 0 Z M-3 3 C-2.01 4.485 -2.01 4.485 -1 6 C-1.66 6 -2.32 6 -3 6 C-3 5.01 -3 4.02 -3 3 Z " fill="#F19767" transform="translate(76,111)"/>
<path d="M0 0 C2.31 0.66 4.62 1.32 7 2 C6.34 2.66 5.68 3.32 5 4 C4.35232207 6.57061311 4.35232207 6.57061311 4 9 C1.3144406 6.3144406 0.93950026 3.62378672 0 0 Z " fill="#E47D46" transform="translate(83,81)"/>
<path d="M0 0 C0.625 1.875 0.625 1.875 1 4 C-1 6 -1 6 -4.125 6.125 C-5.548125 6.063125 -5.548125 6.063125 -7 6 C-4.74259377 3.66475218 -2.7194239 1.81294927 0 0 Z " fill="#233A4B" transform="translate(15,55)"/>
<path d="M0 0 C0.99 0.33 1.98 0.66 3 1 C2.67 2.65 2.34 4.3 2 6 C0.68 5.67 -0.64 5.34 -2 5 C-2 3.68 -2 2.36 -2 1 C-1.34 0.67 -0.68 0.34 0 0 Z " fill="#EC9965" transform="translate(88,12)"/>
<path d="M0 0 C1.32 0 2.64 0 4 0 C3.60196439 2.88575819 3.20990931 3.82189513 0.9375 5.75 C0.298125 6.1625 -0.34125 6.575 -1 7 C-0.67 4.69 -0.34 2.38 0 0 Z " fill="#1F3545" transform="translate(41,121)"/>
<path d="M0 0 C-0.33 0.99 -0.66 1.98 -1 3 C-2.65 3 -4.3 3 -6 3 C-6 2.67 -6 2.34 -6 2 C-8.31 1.67 -10.62 1.34 -13 1 C-13 0.67 -13 0.34 -13 0 C-11.39679026 -0.19551338 -9.79237014 -0.38111983 -8.1875 -0.5625 C-7.29417969 -0.66691406 -6.40085937 -0.77132812 -5.48046875 -0.87890625 C-3 -1 -3 -1 0 0 Z " fill="#F27031" transform="translate(52,99)"/>
<path d="M0 0 C0.33 0 0.66 0 1 0 C0.88541307 1.43836751 0.75790884 2.87570966 0.625 4.3125 C0.55539063 5.11300781 0.48578125 5.91351563 0.4140625 6.73828125 C0 9 0 9 -2 12 C-2.33 8.7 -2.66 5.4 -3 2 C-2.34 2 -1.68 2 -1 2 C-0.67 1.34 -0.34 0.68 0 0 Z " fill="#F29259" transform="translate(123,84)"/>
<path d="M0 0 C0.75 1.5625 0.75 1.5625 1 4 C-0.13084437 6.50286409 -1.52139516 8.67007722 -3 11 C-3.66 11 -4.32 11 -5 11 C-3.77472971 6.94718288 -2.30119506 3.55639236 0 0 Z " fill="#F18C50" transform="translate(85,44)"/>
<path d="M0 0 C0.99 0.33 1.98 0.66 3 1 C2.67 2.65 2.34 4.3 2 6 C0.68 5.34 -0.64 4.68 -2 4 C-2 3.01 -2 2.02 -2 1 C-1.34 0.67 -0.68 0.34 0 0 Z " fill="#EF9966" transform="translate(15,43)"/>
<path d="M0 0 C0.75 1.5625 0.75 1.5625 1 4 C-0.13084437 6.50286409 -1.52139516 8.67007722 -3 11 C-3.66 11 -4.32 11 -5 11 C-3.55049545 7.2089881 -1.84827434 3.6125362 0 0 Z " fill="#F18949" transform="translate(91,33)"/>
<path d="M0 0 C0.99 0.33 1.98 0.66 3 1 C3 2.98 3 4.96 3 7 C1.68 6.67 0.36 6.34 -1 6 C-0.67 4.02 -0.34 2.04 0 0 Z " fill="#2E4250" transform="translate(125,33)"/>
<path d="M0 0 C0.928125 0.0825 1.85625 0.165 2.8125 0.25 C0.87995228 2.2745738 -0.81908688 3.67105792 -3.1875 5.25 C-4.1775 4.92 -5.1675 4.59 -6.1875 4.25 C-4.36434338 1.00883268 -3.82500054 0.30000004 0 0 Z " fill="#E57E4E" transform="translate(104.1875,112.75)"/>
<path d="M0 0 C0.66 0 1.32 0 2 0 C4.09230769 4.43076923 4.09230769 4.43076923 3.625 7.3125 C3.41875 7.869375 3.2125 8.42625 3 9 C0.90250005 6.64031256 0.03094296 5.45383006 -0.1875 2.25 C-0.125625 1.5075 -0.06375 0.765 0 0 Z " fill="#434E57" transform="translate(81,86)"/>
<path d="M0 0 C1.134375 0.020625 2.26875 0.04125 3.4375 0.0625 C0.58443203 2.38722205 -2.10324837 3.8133258 -5.5625 5.0625 C-4.43693182 0.07784091 -4.43693182 0.07784091 0 0 Z " fill="#314656" transform="translate(13.5625,52.9375)"/>
<path d="M0 0 C3.20395416 0 5.09399739 0.74335022 8 2 C8 2.33 8 2.66 8 3 C6.88625 3.103125 5.7725 3.20625 4.625 3.3125 C3.42875 3.539375 2.2325 3.76625 1 4 C0.34 4.99 -0.32 5.98 -1 7 C-0.67 4.69 -0.34 2.38 0 0 Z " fill="#63737C" transform="translate(66,13)"/>
<path d="M0 0 C1.98 0.495 1.98 0.495 4 1 C3.67 2.32 3.34 3.64 3 5 C1.68 4.67 0.36 4.34 -1 4 C-0.67 2.68 -0.34 1.36 0 0 Z " fill="#1F3546" transform="translate(69,116)"/>
<path d="M0 0 C0.33 0.99 0.66 1.98 1 3 C3.64 2.67 6.28 2.34 9 2 C6.37801226 4.15377564 4.35595828 5.40072174 1 6 C0.67 4.02 0.34 2.04 0 0 Z " fill="#EB8C5A" transform="translate(18,82)"/>
<path d="M0 0 C0.99 0 1.98 0 3 0 C2.1875 2.9375 2.1875 2.9375 1 6 C0.01 6.33 -0.98 6.66 -2 7 C-1.125 2.25 -1.125 2.25 0 0 Z " fill="#50646E" transform="translate(80,43)"/>
<path d="M0 0 C0.99 0 1.98 0 3 0 C2.50168276 3.68754757 1.89932357 5.60490662 -1 8 C-1.04241723 5.66705225 -1.04092937 3.33297433 -1 1 C-0.67 0.67 -0.34 0.34 0 0 Z " fill="#EE5713" transform="translate(79,38)"/>
<path d="M0 0 C1.32 0.33 2.64 0.66 4 1 C2.02 3.97 2.02 3.97 0 7 C-0.66 6.01 -1.32 5.02 -2 4 C-1.34 2.68 -0.68 1.36 0 0 Z " fill="#F4884F" transform="translate(49,36)"/>
<path d="M0 0 C0.66 0 1.32 0 2 0 C2 0.66 2 1.32 2 2 C2.66 2 3.32 2 4 2 C4.33 1.34 4.66 0.68 5 0 C5.33 0.99 5.66 1.98 6 3 C4.5625 5.1875 4.5625 5.1875 3 7 C0 2.25 0 2.25 0 0 Z " fill="#465763" transform="translate(120,30)"/>
<path d="M0 0 C0.99 0.33 1.98 0.66 3 1 C2.67 2.32 2.34 3.64 2 5 C0.68 4.67 -0.64 4.34 -2 4 C-2 3.01 -2 2.02 -2 1 C-1.34 0.67 -0.68 0.34 0 0 Z " fill="#ECA578" transform="translate(33,123)"/>
<path d="M0 0 C0.66 0.99 1.32 1.98 2 3 C2.99 2.67 3.98 2.34 5 2 C4.67 2.99 4.34 3.98 4 5 C2.02 5.33 0.04 5.66 -2 6 C-1.34 4.02 -0.68 2.04 0 0 Z " fill="#DF601A" transform="translate(106,104)"/>
<path d="M0 0 C0.33 0.66 0.66 1.32 1 2 C1.99 1.67 2.98 1.34 4 1 C4 3.97 4 6.94 4 10 C0 4 0 4 0 0 Z " fill="#EB8956" transform="translate(93,103)"/>
<path d="M0 0 C0.66 0 1.32 0 2 0 C2.99 2.97 3.98 5.94 5 9 C4.34 9 3.68 9 3 9 C0 3.375 0 3.375 0 0 Z " fill="#7F695F" transform="translate(88,102)"/>
<path d="M0 0 C1.32 0.66 2.64 1.32 4 2 C3.67 2.99 3.34 3.98 3 5 C1.68 5 0.36 5 -1 5 C-0.67 3.35 -0.34 1.7 0 0 Z " fill="#ED9968" transform="translate(53,13)"/>
<path d="M0 0 C-0.33 1.32 -0.66 2.64 -1 4 C-1.78375 3.649375 -2.5675 3.29875 -3.375 2.9375 C-4.24125 2.628125 -5.1075 2.31875 -6 2 C-6.99 2.495 -6.99 2.495 -8 3 C-7.67 2.01 -7.34 1.02 -7 0 C-3.86650268 -1.04449911 -3.01031744 -0.93423645 0 0 Z " fill="#11293D" transform="translate(75,12)"/>
<path d="M0 0 C0.33 0.99 0.66 1.98 1 3 C1.99 3.33 2.98 3.66 4 4 C2.02 4.99 2.02 4.99 0 6 C-0.99 5.01 -1.98 4.02 -3 3 C-2.01 2.01 -1.02 1.02 0 0 Z " fill="#556873" transform="translate(117,116)"/>
<path d="M0 0 C0.66 0 1.32 0 2 0 C3.7143618 1.95927063 5.38405168 3.95880212 7 6 C6.01 6.33 5.02 6.66 4 7 C2 5.1875 2 5.1875 0 3 C0 2.01 0 1.02 0 0 Z " fill="#DB5D1D" transform="translate(64,22)"/>
<path d="M0 0 C2.64 0.33 5.28 0.66 8 1 C7.34 2.32 6.68 3.64 6 5 C3.5625 4.1875 3.5625 4.1875 1 3 C0.67 2.01 0.34 1.02 0 0 Z " fill="#3D525E" transform="translate(106,19)"/>
<path d="M0 0 C0.66 0.33 1.32 0.66 2 1 C0.375 3.0625 0.375 3.0625 -2 5 C-5.25 4.75 -5.25 4.75 -8 4 C-8 3.67 -8 3.34 -8 3 C-6.865625 2.690625 -5.73125 2.38125 -4.5625 2.0625 C-1.21224901 1.37075469 -1.21224901 1.37075469 0 0 Z " fill="#D55615" transform="translate(78,123)"/>
<path d="M0 0 C0.33 0 0.66 0 1 0 C1.125 5.75 1.125 5.75 0 8 C-0.99 8 -1.98 8 -3 8 C-1.125 2.25 -1.125 2.25 0 0 Z " fill="#2F4250" transform="translate(84,35)"/>
<path d="M0 0 C2.475 0.495 2.475 0.495 5 1 C4.67 2.32 4.34 3.64 4 5 C3.01 5 2.02 5 1 5 C0.67 3.35 0.34 1.7 0 0 Z " fill="#EAA883" transform="translate(74,135)"/>
<path d="M0 0 C0.33 0 0.66 0 1 0 C1.33 2.97 1.66 5.94 2 9 C1.01 9 0.02 9 -1 9 C-0.67 6.03 -0.34 3.06 0 0 Z " fill="#CE571E" transform="translate(61,113)"/>
<path d="M0 0 C0.66 0 1.32 0 2 0 C1.75 1.875 1.75 1.875 1 4 C-1.0625 5.25 -1.0625 5.25 -3 6 C-1.125 1.125 -1.125 1.125 0 0 Z " fill="#5B555B" transform="translate(112,106)"/>
<path d="M0 0 C1.7074998 1.28062485 3.37373596 2.61767557 5 4 C5 4.66 5 5.32 5 6 C3.35 5.67 1.7 5.34 0 5 C0 3.35 0 1.7 0 0 Z " fill="#DE5511" transform="translate(81,98)"/>
<path d="M0 0 C2.475 0.99 2.475 0.99 5 2 C4.67 2.99 4.34 3.98 4 5 C3.01 5 2.02 5 1 5 C0.67 3.35 0.34 1.7 0 0 Z " fill="#EAAA83" transform="translate(86,131)"/>
<path d="M0 0 C1.32 0 2.64 0 4 0 C3.67 1.32 3.34 2.64 3 4 C2.01 4 1.02 4 0 4 C0 2.68 0 1.36 0 0 Z " fill="#778088" transform="translate(10,81)"/>
<path d="M0 0 C0.66 0.33 1.32 0.66 2 1 C1.67 2.32 1.34 3.64 1 5 C0.01 4.67 -0.98 4.34 -2 4 C-2 3.01 -2 2.02 -2 1 C-1.34 0.67 -0.68 0.34 0 0 Z " fill="#7A8487" transform="translate(83,133)"/>
<path d="M0 0 C0.66 0 1.32 0 2 0 C2 0.66 2 1.32 2 2 C2.66 2 3.32 2 4 2 C4 2.66 4 3.32 4 4 C1.03 3.505 1.03 3.505 -2 3 C-1.34 2.01 -0.68 1.02 0 0 Z " fill="#E8CEB2" transform="translate(59,135)"/>
<path d="M0 0 C1.32 0 2.64 0 4 0 C4 0.99 4 1.98 4 3 C2.68 3 1.36 3 0 3 C0 2.01 0 1.02 0 0 Z " fill="#EDA480" transform="translate(66,137)"/>
<path d="M0 0 C0.99 0 1.98 0 3 0 C3 0.99 3 1.98 3 3 C2.01 3 1.02 3 0 3 C0 2.01 0 1.02 0 0 Z " fill="#EBBE98" transform="translate(59,11)"/>
<path d="M0 0 C0.66 0 1.32 0 2 0 C2 0.66 2 1.32 2 2 C1.34 2 0.68 2 0 2 C0 1.34 0 0.68 0 0 Z " fill="#EBFBE6" transform="translate(74,141)"/>
<path d="M0 0 C0.66 0.66 1.32 1.32 2 2 C1.34 2 0.68 2 0 2 C0 1.34 0 0.68 0 0 Z " fill="#EAF7E7" transform="translate(65,140)"/>
<path d="M0 0 C0.66 0.66 1.32 1.32 2 2 C1.34 2 0.68 2 0 2 C0 1.34 0 0.68 0 0 Z " fill="#EFEFE5" transform="translate(8,140)"/>
<path d="M0 0 C0.99 0.495 0.99 0.495 2 1 C1.01 1.495 1.01 1.495 0 2 C0 1.34 0 0.68 0 0 Z " fill="#F9EFD4" transform="translate(65,135)"/>
<path d="M0 0 C0.33 0.66 0.66 1.32 1 2 C0.34 1.67 -0.32 1.34 -1 1 C-0.67 0.67 -0.34 0.34 0 0 Z " fill="#EDF4E7" transform="translate(56,135)"/>
<path d="M0 0 C0.66 0.66 1.32 1.32 2 2 C1.34 2 0.68 2 0 2 C0 1.34 0 0.68 0 0 Z " fill="#EDF8E3" transform="translate(49,134)"/>
<path d="M0 0 C0.33 0.66 0.66 1.32 1 2 C0.34 1.67 -0.32 1.34 -1 1 C-0.67 0.67 -0.34 0.34 0 0 Z " fill="#EEFADF" transform="translate(103,117)"/>
<path d="M0 0 C2 1 2 1 2 1 Z " fill="#EBFDE9" transform="translate(72,140)"/>
<path d="M0 0 C2 1 2 1 2 1 Z " fill="#EAFCE9" transform="translate(55,138)"/>
<path d="M0 0 C2 1 2 1 2 1 Z " fill="#EDFDE6" transform="translate(52,128)"/>
<path d="" fill="#E8FCE7" transform="translate(0,0)"/>
<path d="" fill="#F5F8DE" transform="translate(0,0)"/>
<path d="M0 0 C2 1 2 1 2 1 Z " fill="#EFFDE0" transform="translate(14,77)"/>
<path d="" fill="#EBF0E3" transform="translate(0,0)"/>
<path d="" fill="#EAF7EA" transform="translate(0,0)"/>
<path d="" fill="#E9FBEA" transform="translate(0,0)"/>
<path d="" fill="#E8EFE7" transform="translate(0,0)"/>
<path d="" fill="#FFF7D4" transform="translate(0,0)"/>
<path d="" fill="#EFEDDB" transform="translate(0,0)"/>
<path d="" fill="#EAECE2" transform="translate(0,0)"/>
<path d="" fill="#F4F0DF" transform="translate(0,0)"/>
<path d="" fill="#ECF5E2" transform="translate(0,0)"/>
<path d="" fill="#EBFFEC" transform="translate(0,0)"/>
<path d="" fill="#F4F4DE" transform="translate(0,0)"/>
<path d="" fill="#E4F9E8" transform="translate(0,0)"/>
<path d="" fill="#FBFAD8" transform="translate(0,0)"/>
<path d="" fill="#ECFFEC" transform="translate(0,0)"/>
<path d="" fill="#E6F9EB" transform="translate(0,0)"/>
<path d="" fill="#F0FFE6" transform="translate(0,0)"/>
<path d="" fill="#F5F9DA" transform="translate(0,0)"/>
</svg>
